<mxfile host="Electron" agent="Mozilla/5.0 (Windows NT 10.0; Win64; x64) AppleWebKit/537.36 (KHTML, like Gecko) draw.io/24.7.8 Chrome/128.0.6613.36 Electron/32.0.1 Safari/537.36" version="24.7.8">
  <diagram name="ページ1" id="oLyqS2X_22zeMCMgByBz">
    <mxGraphModel dx="1066" dy="734" grid="1" gridSize="10" guides="1" tooltips="1" connect="1" arrows="1" fold="1" page="1" pageScale="1" pageWidth="827" pageHeight="1169" math="0" shadow="0">
      <root>
        <mxCell id="0" />
        <mxCell id="1" parent="0" />
        <mxCell id="yHH3ighmBtEf2A8NmxbX-14" style="edgeStyle=orthogonalEdgeStyle;rounded=0;orthogonalLoop=1;jettySize=auto;html=1;entryX=0;entryY=0.5;entryDx=0;entryDy=0;endArrow=none;endFill=0;" parent="1" source="yHH3ighmBtEf2A8NmxbX-1" target="yHH3ighmBtEf2A8NmxbX-2" edge="1">
          <mxGeometry relative="1" as="geometry" />
        </mxCell>
        <mxCell id="yHH3ighmBtEf2A8NmxbX-17" style="edgeStyle=orthogonalEdgeStyle;rounded=0;orthogonalLoop=1;jettySize=auto;html=1;entryX=0;entryY=0.5;entryDx=0;entryDy=0;endArrow=none;endFill=0;" parent="1" source="yHH3ighmBtEf2A8NmxbX-1" target="yHH3ighmBtEf2A8NmxbX-9" edge="1">
          <mxGeometry relative="1" as="geometry" />
        </mxCell>
        <mxCell id="yHH3ighmBtEf2A8NmxbX-19" style="edgeStyle=orthogonalEdgeStyle;rounded=0;orthogonalLoop=1;jettySize=auto;html=1;entryX=0;entryY=0.5;entryDx=0;entryDy=0;endArrow=none;endFill=0;" parent="1" source="yHH3ighmBtEf2A8NmxbX-1" target="yHH3ighmBtEf2A8NmxbX-11" edge="1">
          <mxGeometry relative="1" as="geometry" />
        </mxCell>
        <mxCell id="yHH3ighmBtEf2A8NmxbX-22" style="edgeStyle=orthogonalEdgeStyle;rounded=0;orthogonalLoop=1;jettySize=auto;html=1;entryX=0;entryY=0.5;entryDx=0;entryDy=0;endArrow=none;endFill=0;" parent="1" source="yHH3ighmBtEf2A8NmxbX-1" target="yHH3ighmBtEf2A8NmxbX-8" edge="1">
          <mxGeometry relative="1" as="geometry" />
        </mxCell>
        <mxCell id="yHH3ighmBtEf2A8NmxbX-23" style="edgeStyle=orthogonalEdgeStyle;rounded=0;orthogonalLoop=1;jettySize=auto;html=1;entryX=0;entryY=0.5;entryDx=0;entryDy=0;endArrow=none;endFill=0;" parent="1" source="yHH3ighmBtEf2A8NmxbX-1" target="yHH3ighmBtEf2A8NmxbX-6" edge="1">
          <mxGeometry relative="1" as="geometry" />
        </mxCell>
        <mxCell id="yHH3ighmBtEf2A8NmxbX-24" style="edgeStyle=orthogonalEdgeStyle;rounded=0;orthogonalLoop=1;jettySize=auto;html=1;entryX=0;entryY=0.5;entryDx=0;entryDy=0;endArrow=none;endFill=0;" parent="1" source="yHH3ighmBtEf2A8NmxbX-1" target="yHH3ighmBtEf2A8NmxbX-5" edge="1">
          <mxGeometry relative="1" as="geometry" />
        </mxCell>
        <mxCell id="yHH3ighmBtEf2A8NmxbX-25" style="edgeStyle=orthogonalEdgeStyle;rounded=0;orthogonalLoop=1;jettySize=auto;html=1;entryX=0;entryY=0.5;entryDx=0;entryDy=0;endArrow=none;endFill=0;" parent="1" source="yHH3ighmBtEf2A8NmxbX-1" target="yHH3ighmBtEf2A8NmxbX-7" edge="1">
          <mxGeometry relative="1" as="geometry" />
        </mxCell>
        <mxCell id="yHH3ighmBtEf2A8NmxbX-1" value="root" style="rounded=1;whiteSpace=wrap;html=1;" parent="1" vertex="1">
          <mxGeometry x="80" y="120" width="90" height="30" as="geometry" />
        </mxCell>
        <mxCell id="yHH3ighmBtEf2A8NmxbX-15" style="edgeStyle=orthogonalEdgeStyle;rounded=0;orthogonalLoop=1;jettySize=auto;html=1;entryX=0;entryY=0.5;entryDx=0;entryDy=0;endArrow=none;endFill=0;" parent="1" source="yHH3ighmBtEf2A8NmxbX-2" target="yHH3ighmBtEf2A8NmxbX-3" edge="1">
          <mxGeometry relative="1" as="geometry" />
        </mxCell>
        <mxCell id="yHH3ighmBtEf2A8NmxbX-16" style="edgeStyle=orthogonalEdgeStyle;rounded=0;orthogonalLoop=1;jettySize=auto;html=1;entryX=0;entryY=0.5;entryDx=0;entryDy=0;endArrow=none;endFill=0;" parent="1" source="yHH3ighmBtEf2A8NmxbX-2" target="yHH3ighmBtEf2A8NmxbX-4" edge="1">
          <mxGeometry relative="1" as="geometry" />
        </mxCell>
        <mxCell id="yHH3ighmBtEf2A8NmxbX-2" value="geo" style="rounded=1;whiteSpace=wrap;html=1;fillColor=#dae8fc;strokeColor=#6c8ebf;" parent="1" vertex="1">
          <mxGeometry x="160" y="160" width="90" height="30" as="geometry" />
        </mxCell>
        <mxCell id="yHH3ighmBtEf2A8NmxbX-3" value="proxy" style="rounded=1;whiteSpace=wrap;html=1;fillColor=#dae8fc;strokeColor=#6c8ebf;" parent="1" vertex="1">
          <mxGeometry x="240" y="200" width="90" height="30" as="geometry" />
        </mxCell>
        <mxCell id="yHH3ighmBtEf2A8NmxbX-4" value="render" style="rounded=1;whiteSpace=wrap;html=1;fillColor=#dae8fc;strokeColor=#6c8ebf;" parent="1" vertex="1">
          <mxGeometry x="240" y="240" width="90" height="30" as="geometry" />
        </mxCell>
        <mxCell id="yHH3ighmBtEf2A8NmxbX-5" value="cam" style="rounded=1;whiteSpace=wrap;html=1;fillColor=#e1d5e7;strokeColor=#9673a6;" parent="1" vertex="1">
          <mxGeometry x="160" y="520" width="90" height="30" as="geometry" />
        </mxCell>
        <mxCell id="yHH3ighmBtEf2A8NmxbX-6" value="fx" style="rounded=1;whiteSpace=wrap;html=1;fillColor=#f8cecc;strokeColor=#b85450;" parent="1" vertex="1">
          <mxGeometry x="160" y="480" width="90" height="30" as="geometry" />
        </mxCell>
        <mxCell id="yHH3ighmBtEf2A8NmxbX-7" value="lgt" style="rounded=1;whiteSpace=wrap;html=1;fillColor=#e1d5e7;strokeColor=#9673a6;" parent="1" vertex="1">
          <mxGeometry x="160" y="560" width="90" height="30" as="geometry" />
        </mxCell>
        <mxCell id="yHH3ighmBtEf2A8NmxbX-8" value="skel" style="rounded=1;whiteSpace=wrap;html=1;fillColor=#fff2cc;strokeColor=#d6b656;" parent="1" vertex="1">
          <mxGeometry x="160" y="440" width="90" height="30" as="geometry" />
        </mxCell>
        <mxCell id="yHH3ighmBtEf2A8NmxbX-9" value="mtl" style="rounded=1;whiteSpace=wrap;html=1;fillColor=#d5e8d4;strokeColor=#82b366;" parent="1" vertex="1">
          <mxGeometry x="160" y="280" width="90" height="30" as="geometry" />
        </mxCell>
        <mxCell id="yHH3ighmBtEf2A8NmxbX-20" style="edgeStyle=orthogonalEdgeStyle;rounded=0;orthogonalLoop=1;jettySize=auto;html=1;entryX=0;entryY=0.5;entryDx=0;entryDy=0;endArrow=none;endFill=0;" parent="1" source="yHH3ighmBtEf2A8NmxbX-11" target="yHH3ighmBtEf2A8NmxbX-12" edge="1">
          <mxGeometry relative="1" as="geometry" />
        </mxCell>
        <mxCell id="yHH3ighmBtEf2A8NmxbX-21" style="edgeStyle=orthogonalEdgeStyle;rounded=0;orthogonalLoop=1;jettySize=auto;html=1;entryX=0;entryY=0.5;entryDx=0;entryDy=0;endArrow=none;endFill=0;" parent="1" source="yHH3ighmBtEf2A8NmxbX-11" target="yHH3ighmBtEf2A8NmxbX-13" edge="1">
          <mxGeometry relative="1" as="geometry" />
        </mxCell>
        <mxCell id="yHH3ighmBtEf2A8NmxbX-11" value="rig" style="rounded=1;whiteSpace=wrap;html=1;fillColor=#ffe6cc;strokeColor=#d79b00;" parent="1" vertex="1">
          <mxGeometry x="160" y="320" width="90" height="30" as="geometry" />
        </mxCell>
        <mxCell id="yHH3ighmBtEf2A8NmxbX-12" value="setup" style="rounded=1;whiteSpace=wrap;html=1;fillColor=#ffe6cc;strokeColor=#d79b00;" parent="1" vertex="1">
          <mxGeometry x="240" y="360" width="90" height="30" as="geometry" />
        </mxCell>
        <mxCell id="yHH3ighmBtEf2A8NmxbX-13" value="ctrl" style="rounded=1;whiteSpace=wrap;html=1;fillColor=#ffe6cc;strokeColor=#d79b00;" parent="1" vertex="1">
          <mxGeometry x="240" y="400" width="90" height="30" as="geometry" />
        </mxCell>
        <mxCell id="PFvn2iy4jWamOqJ9FFW1-1" value="v1.0.0 2024-09-20 CG sup. Tatsuya Yamagishi" style="text;strokeColor=none;align=left;fillColor=none;html=1;verticalAlign=middle;whiteSpace=wrap;rounded=0;" parent="1" vertex="1">
          <mxGeometry x="80" y="50" width="280" height="50" as="geometry" />
        </mxCell>
        <mxCell id="Ywsi99nj0ktf-RmTwbMT-1" value="アセット内のカメラやライトどうしてる？" style="text;strokeColor=none;align=center;fillColor=none;html=1;verticalAlign=middle;whiteSpace=wrap;rounded=0;" parent="1" vertex="1">
          <mxGeometry x="270" y="600" width="130" height="60" as="geometry" />
        </mxCell>
        <mxCell id="Ywsi99nj0ktf-RmTwbMT-3" value="Component" style="text;strokeColor=none;align=left;fillColor=none;html=1;verticalAlign=middle;whiteSpace=wrap;rounded=0;" parent="1" vertex="1">
          <mxGeometry x="180" y="120" width="180" height="30" as="geometry" />
        </mxCell>
      </root>
    </mxGraphModel>
  </diagram>
</mxfile>
